<svg xmlns="http://www.w3.org/2000/svg" viewBox="0 0 1200 720" role="img" aria-label="Apartment near the sea">
  <defs>
    <linearGradient id="sky" x1="0" x2="0" y1="0" y2="1">
      <stop offset="0" stop-color="#8ecae6"/>
      <stop offset="1" stop-color="#f8f5f0"/>
    </linearGradient>
    <linearGradient id="sea" x1="0" x2="1" y1="0" y2="0">
      <stop offset="0" stop-color="#2d6a4f"/>
      <stop offset="1" stop-color="#52b788"/>
    </linearGradient>
  </defs>
  <rect width="1200" height="720" fill="url(#sky)"/>
  <rect y="485" width="1200" height="235" fill="#ead7b7"/>
  <path d="M0 440 C160 395 280 470 450 430 C640 386 745 463 920 424 C1045 397 1120 414 1200 392 L1200 525 L0 525 Z" fill="url(#sea)" opacity=".9"/>
  <rect x="365" y="165" width="360" height="410" rx="14" fill="#184433"/>
  <rect x="420" y="220" width="70" height="78" rx="8" fill="#f8f5f0"/>
  <rect x="515" y="220" width="70" height="78" rx="8" fill="#f8f5f0"/>
  <rect x="610" y="220" width="70" height="78" rx="8" fill="#f8f5f0"/>
  <rect x="420" y="330" width="70" height="78" rx="8" fill="#f8f5f0"/>
  <rect x="515" y="330" width="70" height="78" rx="8" fill="#f8f5f0"/>
  <rect x="610" y="330" width="70" height="78" rx="8" fill="#f8f5f0"/>
  <rect x="498" y="458" width="94" height="117" rx="12" fill="#d4a853"/>
  <rect x="340" y="575" width="410" height="24" rx="12" fill="#0d2b1f"/>
  <circle cx="900" cy="155" r="55" fill="#d4a853"/>
</svg>
